<?xml version="1.0" encoding="UTF-8"?>
<svg id="Layer_1" data-name="Layer 1" xmlns="http://www.w3.org/2000/svg" viewBox="0 0 612 426.92">
  <defs>
    <style>
      .cls-1 {
        fill: #0c95d3;
      }

      .cls-2 {
        fill: #223668;
      }
    </style>
  </defs>
  <path class="cls-2" d="M320.22,284.2h-10.03c-21.98,32.68-58.52,54.73-100.33,56.92v-59h-14.2v58.99c-65.6-3.68-118.12-56.35-121.53-122.03h57.82v-13.16h-57.84c3.18-65.9,55.79-118.81,121.55-122.5v57.4h14.2v-57.39c21.84,1.14,42.26,7.67,59.9,18.34v-9.89c-17.89-9.91-38.24-15.91-59.9-16.93V9.13h-14.2v65.85c-70.25,3.86-126.41,60.51-129.54,130.96H0v13.16h66.15c3.52,70.07,59.54,126.29,129.51,130.13v64.61h14.2v-64.6c46.67-2.2,87.23-27.63,110.36-65.03"/>
  <rect class="cls-2" x="273.59" y="205.93" width="338.41" height="13.16"/>
  <path class="cls-2" d="M203.01,154.95c-31.41,0-56.88,25.47-56.88,56.88s25.47,56.88,56.88,56.88,56.88-25.47,56.88-56.88-25.47-56.88-56.88-56.88M202.66,263.87c-28.8,0-52.15-23.37-52.15-52.17s23.35-52.16,52.15-52.16,52.17,23.35,52.17,52.16-23.35,52.17-52.17,52.17"/>
  <path class="cls-1" d="M285.93,251.82l4.55-.29c.06,1.53.24,2.59.52,3.18.28.6.75,1.06,1.41,1.41.66.34,1.56.51,2.7.51,1.48,0,2.58-.32,3.32-.97.75-.64,1.12-1.49,1.12-2.54,0-.73-.22-1.36-.65-1.9-.42-.51-1.54-1.24-3.32-2.19-2.27-1.2-3.77-2.13-4.51-2.81-.75-.66-1.32-1.48-1.73-2.45-.41-.97-.62-2.07-.62-3.31,0-2.54.74-4.56,2.23-6.07,1.49-1.52,3.52-2.27,6.09-2.27s4.68.76,6.24,2.26c1.56,1.5,2.41,3.62,2.57,6.35l-4.6.23c-.23-2.8-1.65-4.21-4.23-4.21-1.29,0-2.23.27-2.83.8-.61.54-.9,1.28-.9,2.21,0,.85.29,1.55.86,2.07.56.55,1.69,1.27,3.38,2.18,2.24,1.18,3.73,2.09,4.46,2.75.74.66,1.31,1.45,1.7,2.4.4.95.6,2.03.6,3.23,0,2.68-.84,4.88-2.54,6.57-1.69,1.7-3.93,2.55-6.71,2.55-2.09,0-3.87-.45-5.36-1.35-1.48-.88-2.48-2.07-3.02-3.56-.53-1.49-.78-3.09-.74-4.8"/>
  <path class="cls-1" d="M323.34,252.47h-11.47v.52c0,1.39.33,2.5.97,3.32.65.83,1.42,1.24,2.33,1.24,1.5,0,2.68-.95,3.55-2.87l4.08.84c-.8,2-1.86,3.5-3.19,4.49-1.33,1-2.82,1.49-4.48,1.49-2.2,0-4.03-.85-5.48-2.56-1.46-1.71-2.18-4.03-2.18-6.97,0-3.17.83-5.96,2.48-8.37,1.66-2.41,3.97-3.62,6.94-3.62,2.01,0,3.63.76,4.89,2.28,1.24,1.51,1.86,3.71,1.86,6.57,0,1.37-.1,2.57-.3,3.64M319.47,249.07l.02-.54c0-1.56-.29-2.72-.87-3.47-.57-.75-1.32-1.12-2.24-1.12s-1.77.42-2.53,1.3c-.76.86-1.26,2.14-1.53,3.83h7.14Z"/>
  <path class="cls-1" d="M328.18,240.44h4.29l-.69,3.99c1.6-2.97,3.34-4.46,5.22-4.46.66,0,1.37.19,2.14.58l-1.74,4.55c-.42-.18-.85-.27-1.32-.27-.72,0-1.39.24-2.02.72-.96.74-1.69,1.7-2.2,2.88-.51,1.19-1.01,3.23-1.52,6.13l-1.12,6.46h-4.56l3.53-20.6Z"/>
  <path class="cls-1" d="M346.14,261.04h-3.92l-3.41-20.6h4.48l1.2,8.98c.31,2.33.51,3.94.58,4.85l1.01-2.29,1.3-2.85,4.19-8.68h4.92l-10.35,20.6Z"/>
  <path class="cls-1" d="M359.32,240.44h4.55l-3.53,20.6h-4.55l3.53-20.6ZM360.66,232.61h4.57l-.87,5.04h-4.56l.86-5.04Z"/>
  <path class="cls-1" d="M376.29,253.28l4.42.89c-.73,2.45-1.82,4.28-3.27,5.5-1.44,1.21-3.08,1.82-4.93,1.82-2.1,0-3.79-.76-5.08-2.28-1.3-1.53-1.94-3.7-1.94-6.5,0-2.52.44-4.76,1.31-6.74.87-1.97,2.06-3.47,3.55-4.48,1.49-1.01,3.08-1.52,4.78-1.52,1.91,0,3.48.61,4.71,1.82,1.23,1.22,1.93,2.9,2.08,5.07l-4.35.56c-.21-2.24-1.11-3.36-2.71-3.36-.74,0-1.46.3-2.17.91-.71.61-1.33,1.7-1.88,3.26-.53,1.57-.8,3.27-.8,5.12,0,1.23.25,2.16.75,2.82.49.65,1.1.98,1.79.98.74,0,1.44-.31,2.13-.94.67-.62,1.21-1.61,1.61-2.94"/>
  <path class="cls-1" d="M386.49,240.44h4.56l-3.54,20.6h-4.55l3.53-20.6ZM387.83,232.61h4.58l-.87,5.04h-4.56l.85-5.04Z"/>
  <path class="cls-1" d="M392.7,252.49c0-3.38.75-6.25,2.28-8.61,1.69-2.6,4.14-3.9,7.35-3.9,2.41,0,4.32.81,5.75,2.45,1.42,1.63,2.14,3.9,2.14,6.81,0,3.41-.89,6.3-2.66,8.69-1.78,2.39-4.1,3.58-6.98,3.58-2.33,0-4.24-.8-5.7-2.42-1.47-1.61-2.19-3.81-2.19-6.59M405.71,248.51c0-1.36-.32-2.43-.96-3.2-.65-.78-1.46-1.16-2.44-1.16-.83,0-1.6.28-2.33.85-.72.57-1.37,1.56-1.91,2.97-.55,1.41-.82,2.87-.82,4.38s.34,2.73,1,3.59c.67.85,1.49,1.27,2.47,1.27,1.24,0,2.3-.65,3.17-1.98,1.2-1.8,1.81-4.05,1.81-6.72"/>
  <path class="cls-1" d="M411.31,255.27l4.42-.84c.38,1.16.88,1.97,1.47,2.42.59.47,1.38.69,2.36.69s1.71-.22,2.29-.68c.58-.45.87-.98.87-1.6,0-.41-.12-.76-.37-1.04-.26-.28-.88-.6-1.86-.99-2.73-1.1-4.42-1.97-5.09-2.61-1.04-1.02-1.56-2.35-1.56-3.99,0-1.93.68-3.53,2.05-4.78,1.37-1.25,3.25-1.88,5.62-1.88,4.03,0,6.37,1.79,7.02,5.37l-4.21.88c-.49-1.62-1.67-2.43-3.52-2.43-.88,0-1.54.18-2,.54-.45.36-.68.82-.68,1.38,0,.46.18.86.53,1.18.25.25,1.15.64,2.67,1.18,2.17.78,3.65,1.53,4.4,2.28,1.1,1.07,1.65,2.37,1.65,3.92,0,2.07-.71,3.8-2.12,5.17-1.41,1.37-3.28,2.05-5.61,2.05-4.57,0-7.36-2.07-8.35-6.23"/>
  <polygon class="cls-1" points="438.59 261.04 443.65 232.61 448.43 232.61 443.37 261.04 438.59 261.04"/>
  <path class="cls-1" d="M451.7,240.44h4.34l-.45,2.67c1.13-1.17,2.15-1.99,3.09-2.45.94-.46,1.9-.69,2.89-.69,1.36,0,2.44.47,3.25,1.41.81.95,1.21,2.24,1.21,3.88,0,.71-.17,2.07-.5,4.09l-1.98,11.68h-4.59l2-11.68c.3-1.74.45-2.79.45-3.14,0-.74-.18-1.31-.53-1.7-.35-.39-.81-.59-1.39-.59-.61,0-1.24.25-1.89.73-.92.69-1.61,1.53-2.06,2.49-.45.97-.91,2.77-1.36,5.43l-1.46,8.45h-4.56l3.53-20.6Z"/>
  <path class="cls-1" d="M468.94,244.58l.74-4.13h2.36l.57-3.29,5.31-3.9-1.3,7.19h2.88l-.7,4.13h-2.93l-1.6,8.6c-.27,1.54-.41,2.45-.41,2.7,0,.46.13.8.37,1.03.25.22.67.33,1.27.33.19,0,.72-.04,1.57-.13l-.75,4.13c-.81.18-1.63.26-2.45.26-1.58,0-2.77-.36-3.56-1.08-.79-.73-1.19-1.78-1.19-3.18,0-.64.2-2.11.63-4.38l1.51-8.27h-2.33Z"/>
  <path class="cls-1" d="M495.29,252.47h-11.47v.52c0,1.39.33,2.5.98,3.32.64.83,1.42,1.24,2.32,1.24,1.5,0,2.68-.95,3.55-2.87l4.09.84c-.8,2-1.87,3.5-3.2,4.49-1.33,1-2.82,1.49-4.48,1.49-2.2,0-4.02-.85-5.48-2.56-1.46-1.71-2.18-4.03-2.18-6.97,0-3.17.82-5.96,2.49-8.37,1.65-2.41,3.97-3.62,6.94-3.62,2,0,3.63.76,4.88,2.28,1.24,1.51,1.87,3.71,1.87,6.57,0,1.37-.1,2.57-.3,3.64M491.43,249.07l.02-.54c0-1.56-.29-2.72-.86-3.47-.57-.75-1.32-1.12-2.23-1.12s-1.78.42-2.53,1.3c-.76.86-1.26,2.14-1.53,3.83h7.14Z"/>
  <path class="cls-1" d="M496.72,262.14l4.84.86c0,.82.21,1.44.61,1.84.41.41,1.03.6,1.86.6s1.48-.16,1.99-.47c.51-.33.91-.8,1.19-1.44.28-.63.57-1.92.85-3.85l.13-.96c-1.57,1.6-3.18,2.41-4.87,2.41s-2.99-.7-4.07-2.11c-1.07-1.4-1.6-3.49-1.6-6.29,0-2.64.38-4.95,1.16-6.93.78-1.97,1.79-3.43,3.04-4.39,1.24-.95,2.5-1.43,3.79-1.43,1.08,0,2.09.35,3.01,1.06.93.7,1.65,1.73,2.19,3.05l.58-3.64h4.29l-2.75,17.17c-.54,3.35-1.03,5.65-1.47,6.91-.61,1.73-1.5,2.98-2.68,3.73-1.17.76-2.8,1.14-4.87,1.14-2.43,0-4.16-.44-5.25-1.34-1.34-1.11-2.01-2.8-2.01-5.07l.04-.85ZM502.11,252.18c0,1.57.33,2.81.98,3.75.5.71,1.16,1.07,2.01,1.07.69,0,1.38-.3,2.06-.88.68-.58,1.27-1.54,1.77-2.88.49-1.34.74-2.79.74-4.35s-.32-2.73-.97-3.62c-.64-.89-1.37-1.33-2.2-1.33-.64,0-1.27.27-1.89.82-.62.55-1.19,1.57-1.71,3.05-.53,1.49-.79,2.94-.79,4.36"/>
  <path class="cls-1" d="M520.03,240.44h4.28l-.68,3.99c1.6-2.97,3.33-4.46,5.22-4.46.65,0,1.37.19,2.14.58l-1.75,4.55c-.42-.18-.86-.27-1.31-.27-.72,0-1.4.24-2.03.72-.95.74-1.69,1.7-2.2,2.88-.51,1.19-1.01,3.23-1.5,6.13l-1.14,6.46h-4.55l3.53-20.6Z"/>
  <path class="cls-1" d="M535.97,246.28l-4.46-.47c.53-1.91,1.45-3.34,2.77-4.34,1.31-1,2.98-1.5,5-1.5s3.64.51,4.75,1.52c1.11,1.03,1.66,2.37,1.66,4.06,0,.59-.05,1.22-.15,1.88-.1.67-.5,2.5-1.17,5.47-.56,2.46-.84,4.18-.84,5.15,0,.91.15,1.9.46,2.97h-4.54c-.19-.76-.3-1.54-.34-2.35-.66.91-1.4,1.6-2.24,2.08-.83.48-1.68.72-2.52.72-1.32,0-2.42-.54-3.32-1.62-.9-1.09-1.35-2.54-1.35-4.35,0-2.09.54-3.68,1.59-4.8,1.04-1.13,2.8-1.8,5.28-2.04,2.17-.22,3.63-.48,4.36-.79.24-.79.36-1.42.36-1.89,0-.61-.21-1.11-.63-1.5-.43-.38-1.01-.57-1.74-.57-1.6,0-2.57.78-2.93,2.34M540.17,251.44c-.28.09-.63.18-1.08.26-2.09.31-3.46.72-4.12,1.25-.66.52-.99,1.22-.99,2.1,0,.68.18,1.24.56,1.66.38.43.86.64,1.43.64.6,0,1.19-.17,1.74-.53.56-.35,1-.85,1.33-1.49.34-.64.66-1.68.96-3.14l.17-.74Z"/>
  <polygon class="cls-1" points="547.7 261.04 552.57 232.61 557.14 232.61 552.26 261.04 547.7 261.04"/>
  <path class="cls-1" d="M573.13,252.47h-11.47v.52c0,1.39.33,2.5.97,3.32.64.83,1.42,1.24,2.32,1.24,1.5,0,2.69-.95,3.55-2.87l4.09.84c-.8,2-1.87,3.5-3.2,4.49-1.33,1-2.81,1.49-4.48,1.49-2.2,0-4.02-.85-5.48-2.56-1.45-1.71-2.18-4.03-2.18-6.97,0-3.17.82-5.96,2.48-8.37,1.66-2.41,3.97-3.62,6.95-3.62,2,0,3.63.76,4.88,2.28,1.24,1.51,1.87,3.71,1.87,6.57,0,1.37-.1,2.57-.3,3.64M569.27,249.07l.02-.54c0-1.56-.28-2.72-.86-3.47-.57-.75-1.32-1.12-2.23-1.12s-1.78.42-2.54,1.3c-.76.86-1.26,2.14-1.52,3.83h7.14Z"/>
  <path class="cls-1" d="M574.21,255.27l4.42-.84c.39,1.16.88,1.97,1.48,2.42.59.47,1.38.69,2.36.69s1.71-.22,2.29-.68c.59-.45.88-.98.88-1.6,0-.41-.12-.76-.36-1.04-.27-.28-.88-.6-1.87-.99-2.73-1.1-4.42-1.97-5.08-2.61-1.04-1.02-1.57-2.35-1.57-3.99,0-1.93.69-3.53,2.06-4.78,1.37-1.25,3.25-1.88,5.62-1.88,4.04,0,6.37,1.79,7.02,5.37l-4.21.88c-.49-1.62-1.67-2.43-3.53-2.43-.88,0-1.54.18-1.99.54-.45.36-.68.82-.68,1.38,0,.46.17.86.52,1.18.26.25,1.15.64,2.68,1.18,2.19.78,3.65,1.53,4.41,2.28,1.09,1.07,1.65,2.37,1.65,3.92,0,2.07-.7,3.8-2.11,5.17-1.41,1.37-3.28,2.05-5.61,2.05-4.58,0-7.36-2.07-8.36-6.23"/>
  <path class="cls-1" d="M457.77,288.18l3.48-.22c.05,1.17.19,1.97.41,2.43.22.46.58.82,1.08,1.09.5.25,1.18.4,2.07.4,1.12,0,1.97-.26,2.55-.75.57-.49.85-1.14.85-1.95,0-.56-.16-1.04-.49-1.45-.32-.39-1.17-.95-2.53-1.68-1.74-.92-2.89-1.63-3.44-2.15-.58-.51-1.02-1.14-1.33-1.88-.3-.74-.47-1.59-.47-2.53,0-1.93.57-3.49,1.71-4.65,1.14-1.15,2.69-1.73,4.66-1.73s3.58.57,4.77,1.71c1.19,1.16,1.84,2.78,1.96,4.87l-3.52.18c-.18-2.15-1.26-3.22-3.24-3.22-.98,0-1.7.2-2.16.61-.46.42-.69.98-.69,1.7,0,.64.21,1.18.66,1.58.43.42,1.29.98,2.58,1.66,1.71.9,2.85,1.6,3.41,2.11.57.49,1,1.11,1.3,1.83.31.73.46,1.54.46,2.47,0,2.05-.65,3.74-1.95,5.03-1.3,1.31-3,1.96-5.13,1.96-1.6,0-2.97-.34-4.1-1.03-1.13-.68-1.9-1.59-2.32-2.73-.41-1.13-.6-2.36-.57-3.66"/>
  <polygon class="cls-1" points="474.32 291.11 477.76 291.11 477.05 295.23 473.61 295.23 474.32 291.11"/>
  <path class="cls-1" d="M491.85,290.42h-7.06l-2.16,4.82h-3.77l10.1-21.76h4.06l2.89,21.76h-3.49l-.57-4.82ZM491.39,286.79l-1.02-8.75-3.95,8.75h4.97Z"/>
  <polygon class="cls-1" points="498.63 291.11 502.07 291.11 501.35 295.23 497.91 295.23 498.63 291.11"/>
  <path class="cls-1" d="M522.74,295.23h-3.32l.32-1.72c-.63.77-1.25,1.3-1.85,1.61-.59.31-1.25.47-1.96.47-1.29,0-2.34-.54-3.15-1.65-.82-1.1-1.23-2.75-1.23-4.96,0-2.6.58-4.9,1.77-6.88,1.18-1.99,2.69-2.99,4.53-2.99,1.7,0,2.99.84,3.84,2.51l1.46-8.14h3.49l-3.9,21.76ZM514.94,288.8c0,1.15.23,2.03.69,2.65.45.62,1,.93,1.66.93.54,0,1.06-.21,1.56-.64.51-.43.94-1.19,1.32-2.28.38-1.09.57-2.21.57-3.37s-.25-2.13-.74-2.82c-.48-.7-1.03-1.04-1.67-1.04-.49,0-.99.22-1.49.67-.51.46-.95,1.24-1.33,2.36-.37,1.12-.57,2.3-.57,3.53"/>
  <path class="cls-1" d="M538.57,288.66h-8.77v.41c0,1.06.25,1.91.74,2.54.49.63,1.09.94,1.78.94,1.15,0,2.05-.72,2.71-2.19l3.13.64c-.61,1.53-1.43,2.68-2.45,3.44-1.01.76-2.15,1.15-3.42,1.15-1.68,0-3.08-.66-4.19-1.97-1.11-1.31-1.67-3.09-1.67-5.33,0-2.43.63-4.56,1.9-6.41,1.26-1.83,3.04-2.77,5.31-2.77,1.54,0,2.78.59,3.74,1.75.95,1.16,1.42,2.84,1.42,5.04,0,1.03-.07,1.96-.24,2.76M535.61,286.08v-.42c.01-1.2-.2-2.07-.64-2.66-.44-.57-1.01-.87-1.71-.87s-1.36.34-1.94,1c-.58.66-.97,1.64-1.17,2.94h5.46Z"/>
  <path class="cls-1" d="M559.12,287.39l3.7.66c-.74,2.52-1.84,4.4-3.29,5.66-1.45,1.25-3.13,1.88-5.04,1.88-2.14,0-3.82-.78-5.08-2.34-1.25-1.56-1.88-3.9-1.88-7.04,0-2.68.46-5.03,1.37-7.07.91-2.04,2.07-3.56,3.48-4.56,1.42-.99,2.94-1.48,4.59-1.48,1.85,0,3.39.61,4.61,1.82,1.24,1.22,1.96,2.95,2.19,5.22l-3.52.42c-.21-1.31-.59-2.25-1.15-2.79-.57-.54-1.29-.8-2.19-.8s-1.81.32-2.65.99c-.85.67-1.57,1.77-2.17,3.34-.6,1.55-.89,3.27-.89,5.13,0,1.75.34,3.1,1.03,4.03.68.94,1.53,1.42,2.52,1.42s1.81-.38,2.61-1.11c.79-.74,1.39-1.86,1.79-3.36"/>
  <polygon class="cls-1" points="564.6 291.11 568.04 291.11 567.33 295.23 563.88 295.23 564.6 291.11"/>
  <polygon class="cls-1" points="579.32 295.23 575.39 295.23 572.19 273.47 575.85 273.47 578.13 289.93 585.51 273.47 589.14 273.47 579.32 295.23"/>
  <polygon class="cls-1" points="584.33 291.11 587.77 291.11 587.06 295.23 583.61 295.23 584.33 291.11"/>
  <path class="cls-1" d="M202.6,304.98c-51.26,0-92.81-41.55-92.81-92.8s41.55-92.81,92.81-92.81c26.42,0,50.26,11.06,67.15,28.78v-5.22c-17.37-16.85-41.05-27.23-67.15-27.23-53.32,0-96.53,43.22-96.53,96.53s43.22,96.55,96.53,96.55c26.11,0,49.79-10.39,67.15-27.24v-5.35c-16.9,17.73-40.73,28.79-67.15,28.79"/>
  <path class="cls-1" d="M520.85,88.71l-16.44,64.28-16.56-64.28h-56.02l-21.33,35.64-21.29-35.64h-32.57c-5.06-1.2-10.87-1.8-17.45-1.8-11,0-19.67,1.39-25.98,4.15-6.32,2.76-11.05,6.55-14.19,11.39-3.15,4.83-4.73,9.95-4.73,15.38,0,8.26,3.07,15.06,9.23,20.4,6.09,5.33,16.31,9.6,30.62,12.83,8.74,1.92,14.32,3.96,16.72,6.12,2.4,2.16,3.6,4.61,3.6,7.36,0,2.88-1.26,5.41-3.78,7.6-2.53,2.19-6.12,3.28-10.77,3.28-6.25,0-11.05-2.13-14.41-6.41-2.07-2.64-3.44-6.49-4.11-11.53l-31.06,1.94c.91,10.66,4.83,19.46,11.74,26.38,6.92,6.92,19.36,10.37,37.34,10.37,10.23,0,18.71-1.47,25.44-4.43,6.72-2.95,11.96-7.29,15.71-13.01,3.74-5.72,5.62-11.95,5.62-18.73,0-5.77-1.41-10.98-4.22-15.64-2.81-4.66-7.3-8.56-13.48-11.71-6.17-3.15-16.39-6.26-30.67-9.33-5.76-1.2-9.41-2.5-10.95-3.89-1.59-1.34-2.38-2.86-2.38-4.54,0-2.31.96-4.27,2.88-5.87,1.11-.93,2.57-1.56,4.3-1.95l-.03-.03s15.28-5.41,41.59,11.94l20.88,31.15v44.24h32.72v-44.24l18.1-27.05v71.3h26.73v-80.56l20.56,80.56h24.2l20.6-80.56v80.56h26.74v-105.64h-42.91Z"/>
</svg>